<?xml version="1.0" encoding="UTF-8"?>
<svg width="35px" height="35px" viewBox="0 0 35 35" version="1.1" xmlns="http://www.w3.org/2000/svg" xmlns:xlink="http://www.w3.org/1999/xlink">
    <title>Facebook-icon</title>
    <g id="Symbols" stroke="none" stroke-width="1" fill="none" fill-rule="evenodd">
        <g id="Facebook-icon" fill="#ffffff">
            <path d="M21.6609869,10.0037586 L19.50259,10 C17.0771538,10 15.5100872,11.6420763 15.5100872,14.183703 L15.5100872,16.1126833 L13.339422,16.1126833 C13.1517176,16.1126833 13,16.2680374 13,16.4593068 L13,19.254428 C13,19.4461149 13.1521265,19.6010514 13.339422,19.6010514 L15.5100872,19.6010514 L15.5100872,26.6533766 C15.5100872,26.8450635 15.6618048,27 15.8495093,27 L18.6810251,27 C18.8687296,27 19.0204471,26.8446459 19.0204471,26.6533766 L19.0204471,19.6010514 L21.5583424,19.6010514 C21.7460469,19.6010514 21.8977644,19.4461149 21.8977644,19.254428 L21.8989913,16.4593068 C21.8989913,16.3674307 21.8630044,16.2797308 21.7992094,16.2145823 C21.7358233,16.1494338 21.6491276,16.1126833 21.5591603,16.1126833 L19.0204471,16.1126833 L19.0204471,14.4777065 C19.0204471,13.6917483 19.2040622,13.292505 20.2063795,13.292505 L21.6609869,13.2920874 C21.8482824,13.2920874 22,13.1367332 22,12.9454639 L22,10.350382 C22,10.1591127 21.8482824,10.0037586 21.6609869,10.0037586" id="Fill-13"></path>
            <path d="M31.7588055,24.580085 C31.6831833,26.2894934 31.3963257,27.2124134 31.1567849,27.8278342 C30.5687058,29.3526586 29.3583275,30.5628032 27.8332086,31.1507687 C27.2176689,31.3902633 26.2878111,31.6770655 24.5848321,31.7522507 C22.7382131,31.8346166 22.1843541,31.8548913 17.5139415,31.8548913 C12.8431065,31.8548913 12.2820655,31.8346166 10.442206,31.7522507 C8.73288994,31.6770655 7.80979166,31.3902633 7.19425199,31.1507687 C6.4350723,30.8703024 5.74433286,30.4259492 5.18371436,29.8447419 C4.6023948,29.2774734 4.15753325,28.5932032 3.87701277,27.8345925 C3.63789441,27.219594 3.35061439,26.2894934 3.2758371,24.5868432 C3.19345533,22.7410031 3.17317674,22.1868287 3.17317674,17.5168956 C3.17317674,12.8469624 3.19345533,12.2864522 3.2758371,10.4473703 C3.35061439,8.73796191 3.63789441,7.81504188 3.87701277,7.19962106 C4.15753325,6.44058797 4.6023948,5.7499819 5.19047389,5.18904926 C5.75785192,4.60784195 6.44183183,4.16348869 7.20101152,3.88344476 C7.81655119,3.64437257 8.746409,3.35714803 10.449388,3.28154039 C12.296007,3.19959692 12.849866,3.17889986 17.5202786,3.17889986 C22.1982956,3.17889986 22.7521546,3.19959692 24.5915916,3.28154039 C26.3013302,3.35714803 27.2248509,3.64437257 27.8399681,3.88344476 C28.5991478,4.16348869 29.2898873,4.60784195 29.8505058,5.18904926 C30.4318253,5.75674012 30.8762644,6.44058797 31.1567849,7.19962106 C31.3963257,7.81504188 31.6831833,8.74472014 31.7588055,10.4473703 C31.8407648,12.2932104 31.8614659,12.8469624 31.8614659,17.5168956 C31.8614659,22.1868287 31.8407648,22.7338225 31.7588055,24.580085 M34.9112812,10.2898192 C34.8293219,8.4304627 34.5285228,7.1518911 34.0976028,6.04396466 C33.6527412,4.8680336 32.9691838,3.81501774 32.0731236,2.93982767 C31.1977645,2.05112114 30.1377858,1.36009268 28.9751467,0.922920036 C27.8606692,0.492083223 26.5886102,0.191342232 24.7284721,0.109398759 C22.8543925,0.0202746736 22.2595539,0 17.5067595,0 C12.7539652,0 12.1591266,0.0202746736 10.292229,0.102218146 C8.43209087,0.184161618 7.15327234,0.485324998 6.0455544,0.915739422 C4.86897376,1.36009268 3.81575453,2.04394053 2.94039543,2.93982767 C2.05151727,3.81501774 1.36077783,4.87479182 0.923098279,6.03720644 C0.492178258,7.1518911 0.191379185,8.42328208 0.109419888,10.283061 C0.0202785892,12.1563564 0,12.7515025 0,17.5033791 C0,22.2552557 0.0202785892,22.8499795 0.102237887,24.716939 C0.184619656,26.5767179 0.485418729,27.8548671 0.916338749,28.9627936 C1.36077783,30.1387246 2.05151727,31.1917405 2.94039543,32.0669306 C3.81575453,32.9556371 4.87573329,33.6462432 6.0383724,34.0838382 C7.15327234,34.514675 8.42490887,34.815416 10.2854694,34.8973595 C12.1519446,34.9797253 12.7472057,35 17.5004225,35 C22.2532168,35 22.8480554,34.9797253 24.714953,34.8973595 C26.5746687,34.815416 27.8539097,34.514675 28.9616276,34.0838382 C31.3143664,33.1744346 33.1745045,31.3146557 34.0836613,28.9627936 C34.5145813,27.8481089 34.8153803,26.5767179 34.8977621,24.716939 C34.9797214,22.8499795 35,22.2552557 35,17.5033791 C35,12.7515025 34.9932405,12.1563564 34.9112812,10.2898192" id="Fill-14"></path>
        </g>
    </g>
</svg>