<?xml version="1.0" encoding="UTF-8"?>
<svg width="340px" height="341px" viewBox="0 0 340 341" version="1.1" xmlns="http://www.w3.org/2000/svg" xmlns:xlink="http://www.w3.org/1999/xlink">
    <!-- Generator: Sketch 62 (91390) - https://sketch.com -->
    <title>Services-Element</title>
    <desc>Created with Sketch.</desc>
    <g id="Symbols" stroke="none" stroke-width="1" fill="none" fill-rule="evenodd">
        <g id="Services-Element-Copy" transform="translate(-22.000000, -26.000000)" fill="#F27700">
            <g id="Services-Element" transform="translate(22.000000, 26.000000)">
                <path d="M42,59 L8,117 C15.3577519,95.4000832 27.0088868,75.7308853 42,59" id="Fill-1"></path>
                <path d="M69,33 L0,153 C0.448248617,148.655567 1.05802827,144.359789 1.84145378,140.126856 L58.8053727,41.0948761 C62.0925292,38.2445391 65.4887192,35.5584106 69,33" id="Fill-3"></path>
                <path d="M90,21 L0.112633249,177 C0.0321809283,175.000723 0,172.999432 0,170.984032 C0,169.831223 0.0160904642,168.68043 0.0321809283,167.527621 L81.7777728,25.6555734 C84.4749369,24.0230996 87.2062932,22.4712418 90,21" id="Fill-5"></path>
                <path d="M107,12 L0.993764365,196 C0.608756264,193.385887 0.272126144,190.755613 0,188.109178 L99.6868618,15.0625926 C102.087619,13.987857 104.534739,12.9636258 107,12" id="Fill-7"></path>
                <path d="M124,7 L4.59322545,213 C4.01350219,210.724683 3.48242704,208.433214 3,206.125594 L117.258183,9.0350664 C119.47978,8.2981624 121.731782,7.62586367 124,7" id="Fill-9"></path>
                <path d="M139,4 L9.04311774,228 C8.31951354,225.982945 7.62833978,223.96589 7,221.914545 L132.676064,5.28082987 C134.767828,4.8007708 136.875806,4.36912105 139,4" id="Fill-11"></path>
                <path d="M153,1 L14.3784742,241 C13.5424658,239.184976 12.755039,237.337577 12,235.47399 L147.038633,1.67380491 C149.014284,1.4188517 151.008154,1.19222663 153,1" id="Fill-13"></path>
                <path d="M166,0 L20.6689713,253 C19.7423851,251.345969 18.8621281,249.689913 18,248.003489 L160.355881,0.192329236 C162.225168,0.0971768773 164.112584,0.0323922924 166,0" id="Fill-15"></path>
                <path d="M179,0.240881453 L26.9191502,264 C25.9245367,262.489936 24.9460958,260.963679 24,259.405034 L173.5741,0 C175.389472,0.0485811334 177.200801,0.127525475 179,0.240881453" id="Fill-17"></path>
                <path d="M191,1.57817996 L34.1214397,274 C33.0466804,272.621263 32.008217,271.208159 31,269.780904 L185.781469,1 C187.525684,1.15970705 189.271916,1.35378144 191,1.57817996" id="Fill-19"></path>
                <path d="M204,3.9472183 L42.3250543,284 C41.1836479,282.73097 40.0766457,281.429557 39,280.128144 L198.987121,3 C200.674946,3.28942781 202.34658,3.59504739 204,3.9472183" id="Fill-21"></path>
                <path d="M215,6.25224152 L50.5078164,292 C49.3217347,290.826656 48.1538074,289.655335 47,288.451645 L210.181039,5 C211.796773,5.38437139 213.398386,5.8031339 215,6.25224152" id="Fill-23"></path>
                <path d="M226,10.5701802 L58.6900223,300 C57.4371122,298.942449 56.2023895,297.852607 55,296.746619 L221.331899,9 C222.9041,9.49648371 224.460133,10.0091132 226,10.5701802" id="Fill-25"></path>
                <path d="M237,13.8632984 L67.8358619,307 C66.5356725,306.034969 65.2678363,305.039592 64,304.044214 L232.523143,12 C234.029583,12.5947989 235.523891,13.2219677 237,13.8632984" id="Fill-27"></path>
                <path d="M247,19.1367198 L77.0105667,314 C75.6629354,313.131958 74.3153042,312.233564 73,311.302796 L242.668184,17 C244.12896,17.6920058 245.571551,18.3981755 247,19.1367198" id="Fill-29"></path>
                <path d="M257,24.420839 L87.1613868,319 C85.7520799,318.232762 84.377048,317.431199 83,316.597332 L252.840629,22 C254.24792,22.7854098 255.624968,23.586972 257,24.420839" id="Fill-31"></path>
                <path d="M266,30.6992274 L96.3479796,325 C94.8872039,324.307994 93.4284487,323.601824 92,322.86328 L261.991454,28 C263.337065,28.8680424 264.684696,29.7684593 266,30.6992274" id="Fill-33"></path>
                <path d="M276,36.9879922 L107.492666,329 C105.984327,328.405234 104.475988,327.780122 103,327.136804 L272.148277,34 C273.44836,34.981162 274.732267,35.976485 276,36.9879922" id="Fill-35"></path>
                <path d="M284,45.2353965 L117.652374,333 C116.096193,332.503489 114.540013,331.990831 113,331.429733 L280.325797,42 C281.560636,43.0414626 282.781329,44.1293471 284,45.2353965" id="Fill-37"></path>
                <path d="M292,52.5665619 L128.820978,336 C127.203227,335.615629 125.601614,335.196866 124,334.733597 L288.492184,49 C289.694402,50.1733442 290.864347,51.3608495 292,52.5665619" id="Fill-39"></path>
                <path d="M301,61.871856 L141.011346,339 C139.325381,338.726764 137.653582,338.404953 136,338.068973 L297.690811,58 C298.814114,59.2690296 299.923249,60.5704428 301,61.871856" id="Fill-41"></path>
                <path d="M308,71.2210868 L153.218531,340 C151.474316,339.840294 149.728084,339.646221 148,339.421824 L304.87856,67 C305.951303,68.3807482 306.991783,69.7918203 308,71.2210868" id="Fill-43"></path>
                <path d="M315,81.5949655 L165.423878,341 C163.610528,340.951419 161.797178,340.872475 160,340.759119 L312.078828,77 C313.091636,78.5100636 314.070077,80.0363208 315,81.5949655" id="Fill-45"></path>
                <path d="M321,92.9984956 L178.644734,340.805648 C176.773228,340.902824 174.885607,340.965583 173,341 L318.34484,88 C319.273542,89.6560427 320.153894,91.3120854 321,92.9984956" id="Fill-47"></path>
                <path d="M327,105.509822 L191.960683,339.326195 C189.985258,339.583172 188.007809,339.807773 186,340 L324.605607,100 C325.441519,101.815024 326.245048,103.646236 327,105.509822" id="Fill-49"></path>
                <path d="M332,120.067356 L206.323159,336.719159 C204.231653,337.199222 202.123933,337.632893 200,338 L329.957133,114 C330.680649,116.000936 331.355524,118.034146 332,120.067356" id="Fill-51"></path>
                <path d="M336,135.858255 L221.741817,332.964934 C219.522247,333.701838 217.270245,334.374136 215,335 L334.406775,129 C334.986498,131.273298 335.517573,133.550635 336,135.858255" id="Fill-53"></path>
                <path d="M339,152.887503 L239.313138,325.921753 C236.898271,327.01247 234.465261,328.022394 232,329 L338.024377,145 C338.40737,147.613682 338.744,150.241503 339,152.887503" id="Fill-55"></path>
                <path d="M340,171.031546 C340,172.18425 339.983912,173.334939 339.967824,174.471522 L258.220941,316.346863 C255.538276,317.977174 252.79327,319.528891 250,321 L339.889395,165 C339.967824,167.001111 340,169.016328 340,171.031546" id="Fill-57"></path>
                <path d="M339,189 C338.549943,193.342672 337.942467,197.620497 337.15739,201.851715 L280.203984,300.910431 C276.920384,303.741375 273.507619,306.442626 270,309 L339,189 Z" id="Fill-59"></path>
                <path d="M331,225 C323.648869,246.602881 311.975583,266.275642 297,283 L331,225 Z" id="Fill-61"></path>
            </g>
        </g>
    </g>
</svg>