<?xml version="1.0" encoding="UTF-8"?>
<svg width="35px" height="35px" viewBox="0 0 35 35" version="1.1" xmlns="http://www.w3.org/2000/svg" xmlns:xlink="http://www.w3.org/1999/xlink">
    <title>Instagram-icon</title>
    <g id="Symbols" stroke="none" stroke-width="1" fill="none" fill-rule="evenodd">
        <g id="Instagram-icon" fill="#ffffff">
            <path d="M31.7588055,24.580085 C31.6836057,26.2894934 31.3963257,27.2124134 31.1567849,27.8278342 C30.5687058,29.3526586 29.3583275,30.5628032 27.8332086,31.1507687 C27.2176689,31.3902633 26.2878111,31.6770655 24.5848321,31.7522507 C22.7382131,31.8346166 22.1847766,31.8548913 17.5139415,31.8548913 C12.8431065,31.8548913 12.2820655,31.8346166 10.442206,31.7522507 C8.73288994,31.6770655 7.80979166,31.3902633 7.19382952,31.1507687 C6.4350723,30.8703024 5.74433286,30.4259492 5.18371436,29.8447419 C4.6023948,29.2774734 4.15795573,28.5936255 3.87743524,27.8345925 C3.63789441,27.219594 3.35061439,26.2894934 3.2758371,24.5868432 C3.19345533,22.7410031 3.17317674,22.1868287 3.17317674,17.5168956 C3.17317674,12.8469624 3.19345533,12.2864522 3.2758371,10.4473703 C3.35061439,8.73796191 3.63789441,7.81504188 3.87743524,7.19962106 C4.15795573,6.44058797 4.6023948,5.7499819 5.19047389,5.18904926 C5.75827439,4.60784195 6.44183183,4.16391108 7.20101152,3.88344476 C7.81655119,3.64437257 8.74683147,3.35714803 10.449388,3.28154039 C12.296007,3.19959692 12.849866,3.17889986 17.5202786,3.17889986 C22.1982956,3.17889986 22.7521546,3.19959692 24.5920141,3.28154039 C26.3017526,3.35714803 27.2248509,3.64437257 27.8403906,3.88344476 C28.5991478,4.16391108 29.2898873,4.60784195 29.8505058,5.18904926 C30.4318253,5.75674012 30.8766869,6.44058797 31.1567849,7.19962106 C31.3963257,7.81504188 31.6836057,8.74472014 31.7588055,10.4473703 C31.8407648,12.2936328 31.8614659,12.8469624 31.8614659,17.5168956 C31.8614659,22.1868287 31.8407648,22.7338225 31.7588055,24.580085 M34.9112812,10.2898192 C34.8293219,8.4304627 34.5285228,7.1518911 34.0976028,6.04396466 C33.6531637,4.8680336 32.9691838,3.81501774 32.0731236,2.93982767 C31.1977645,2.05112114 30.1377858,1.36009268 28.9751467,0.922920036 C27.8606692,0.492083223 26.5886102,0.191342232 24.7284721,0.109398759 C22.854815,0.0202746736 22.2599763,0 17.5067595,0 C12.7539652,0 12.1591266,0.0202746736 10.2918065,0.102218146 C8.43209087,0.184584007 7.15327234,0.485324998 6.0455544,0.916161811 C4.86897376,1.36009268 3.81575453,2.04394053 2.94039543,2.93982767 C2.05151727,3.81501774 1.36077783,4.87479182 0.923098279,6.03720644 C0.492178258,7.1518911 0.191379185,8.42328208 0.109419888,10.283061 C0.0207010598,12.1567787 0,12.7515025 0,17.5033791 C0,22.2552557 0.0207010598,22.8499795 0.102237887,24.716939 C0.184619656,26.5767179 0.485418729,27.8548671 0.916338749,28.9627936 C1.36077783,30.1387246 2.05151727,31.1917405 2.94039543,32.0669306 C3.81575453,32.9560595 4.87615576,33.6462432 6.0383724,34.0838382 C7.15327234,34.514675 8.42533134,34.815416 10.2854694,34.8973595 C12.1519446,34.9797253 12.7476281,35 17.5004225,35 C22.2532168,35 22.8480554,34.9797253 24.714953,34.8973595 C26.5750911,34.815416 27.8539097,34.514675 28.9616276,34.0838382 C31.3143664,33.1744346 33.1745045,31.3146557 34.0840837,28.9627936 C34.5145813,27.8485313 34.8158028,26.5767179 34.8977621,24.716939 C34.9797214,22.8499795 35,22.2552557 35,17.5033791 C35,12.7515025 34.9932405,12.1567787 34.9112812,10.2898192" id="Fill-1"></path>
            <path d="M17.9997886,23.837855 C14.7763371,23.837855 12.1617222,21.2236629 12.1617222,17.9997886 C12.1617222,14.7763371 14.7763371,12.1617222 17.9997886,12.1617222 C21.2236629,12.1617222 23.837855,14.7763371 23.837855,17.9997886 C23.837855,21.2236629 21.2236629,23.837855 17.9997886,23.837855 M17.9997886,9 C13.0314284,9 9,13.0310056 9,17.9997886 C9,22.9685716 13.0314284,27 17.9997886,27 C22.9685716,27 27,22.9685716 27,17.9997886 C27,13.0310056 22.9685716,9 17.9997886,9" id="Fill-3"></path>
            <path d="M29,8 C29,9.10444757 28.1045377,10 26.9997988,10 C25.8954623,10 25,9.10444757 25,8 C25,6.89514993 25.8954623,6 26.9997988,6 C28.1045377,6 29,6.89514993 29,8" id="Fill-5"></path>
        </g>
    </g>
</svg>