<?xml version="1.0" encoding="UTF-8"?>
<svg width="35px" height="35px" viewBox="0 0 35 35" version="1.1" xmlns="http://www.w3.org/2000/svg" xmlns:xlink="http://www.w3.org/1999/xlink">
    <title>Linkedin-icon</title>
    <style>#Linkedin-icon:hover { fill: orange; }</style>
    <g id="Symbols" stroke="none" stroke-width="1" fill="none" fill-rule="evenodd">
        <g id="Linkedin-icon" fill="#ffffff">
            <path d="M25.9962505,25 L25.9962505,24.9995672 L26,24.9995672 L26,19.1048863 C26,16.2209458 25.4025747,14 22.157147,14 C20.5969254,14 19.5499729,14.8888976 19.1225264,15.732355 L19.077532,15.732355 L19.077532,14.2691793 L16,14.2691793 L16,24.9995672 L19.2045994,24.9995672 L19.2045994,19.6860886 C19.2045994,18.286962 19.4599842,16.9341412 21.1272758,16.9341412 C22.7708203,16.9341412 22.7954006,18.531041 22.7954006,19.7756708 L22.7954006,25 L25.9962505,25 Z" id="Fill-7"></path>
            <polygon id="Fill-9" points="10 25 13 25 13 14 10 14"></polygon>
            <path d="M12.0002242,9 C10.8960646,9 10,9.89186475 10,10.9908492 C10,12.0898337 10.8960646,13 12.0002242,13 C13.1043839,13 14,12.0898337 14,10.9908492 C13.9995515,9.89186475 13.1034869,9 12.0002242,9" id="Fill-11"></path>
            <path d="M31.7588055,24.580085 C31.6836057,26.2894934 31.3963257,27.2124134 31.1567849,27.8278342 C30.5687058,29.3526586 29.3583275,30.5628032 27.8332086,31.1507687 C27.2176689,31.3902633 26.2878111,31.6770655 24.5848321,31.7522507 C22.7382131,31.8346166 22.1847766,31.8548913 17.5139415,31.8548913 C12.8431065,31.8548913 12.2820655,31.8346166 10.442206,31.7522507 C8.73288994,31.6770655 7.80979166,31.3902633 7.19382952,31.1507687 C6.4350723,30.8703024 5.74433286,30.4259492 5.18371436,29.8447419 C4.6023948,29.2774734 4.15753325,28.5932032 3.87743524,27.8345925 C3.63789441,27.219594 3.35061439,26.2894934 3.2758371,24.5868432 C3.19345533,22.7410031 3.17317674,22.1868287 3.17317674,17.5168956 C3.17317674,12.8469624 3.19345533,12.2864522 3.2758371,10.4473703 C3.35061439,8.73796191 3.63789441,7.81504188 3.87743524,7.19962106 C4.15753325,6.44058797 4.6023948,5.7499819 5.19047389,5.18904926 C5.75785192,4.60784195 6.44183183,4.16348869 7.20101152,3.88344476 C7.81655119,3.64437257 8.74683147,3.35714803 10.449388,3.28154039 C12.296007,3.19959692 12.849866,3.17889986 17.5202786,3.17889986 C22.1982956,3.17889986 22.7521546,3.19959692 24.5920141,3.28154039 C26.3017526,3.35714803 27.2248509,3.64437257 27.8403906,3.88344476 C28.5991478,4.16348869 29.2898873,4.60784195 29.8505058,5.18904926 C30.4318253,5.75674012 30.8766869,6.44058797 31.1567849,7.19962106 C31.3963257,7.81504188 31.6836057,8.74472014 31.7588055,10.4473703 C31.8407648,12.2932104 31.8614659,12.8469624 31.8614659,17.5168956 C31.8614659,22.1868287 31.8407648,22.7338225 31.7588055,24.580085 M34.9112812,10.2898192 C34.8293219,8.4304627 34.5285228,7.1518911 34.0976028,6.04396466 C33.6531637,4.8680336 32.9691838,3.81501774 32.0731236,2.93982767 C31.1977645,2.05112114 30.1377858,1.36009268 28.9751467,0.922920036 C27.8606692,0.492083223 26.5886102,0.191342232 24.7284721,0.109398759 C22.8543925,0.0202746736 22.2595539,0 17.5067595,0 C12.7539652,0 12.1591266,0.0202746736 10.2918065,0.102218146 C8.43209087,0.184161618 7.15327234,0.485324998 6.0455544,0.915739422 C4.86897376,1.36009268 3.81575453,2.04394053 2.94039543,2.93982767 C2.05151727,3.81501774 1.36077783,4.87479182 0.923098279,6.03720644 C0.492178258,7.1518911 0.191379185,8.42328208 0.109419888,10.283061 C0.0207010598,12.1563564 0,12.7515025 0,17.5033791 C0,22.2552557 0.0207010598,22.8499795 0.102237887,24.716939 C0.184619656,26.5767179 0.485418729,27.8548671 0.916338749,28.9627936 C1.36077783,30.1387246 2.05151727,31.1917405 2.94039543,32.0669306 C3.81575453,32.9556371 4.87573329,33.6462432 6.0383724,34.0838382 C7.15327234,34.514675 8.42490887,34.815416 10.2854694,34.8973595 C12.1519446,34.9797253 12.7472057,35 17.5004225,35 C22.2532168,35 22.8480554,34.9797253 24.714953,34.8973595 C26.5750911,34.815416 27.8539097,34.514675 28.9616276,34.0838382 C31.3143664,33.1744346 33.1745045,31.3146557 34.0836613,28.9627936 C34.5145813,27.8481089 34.8153803,26.5767179 34.8977621,24.716939 C34.9797214,22.8499795 35,22.2552557 35,17.5033791 C35,12.7515025 34.9932405,12.1563564 34.9112812,10.2898192" id="Fill-12"></path>
        </g>
    </g>
</svg>