<?xml version="1.0" encoding="UTF-8"?>
<svg width="35px" height="35px" viewBox="0 0 35 35" version="1.1" xmlns="http://www.w3.org/2000/svg" xmlns:xlink="http://www.w3.org/1999/xlink">
    <title>Twitter-icon</title>
    <g id="Symbols" stroke="none" stroke-width="1" fill="none" fill-rule="evenodd">
        <g id="Twitter-icon" fill="#ffffff">
            <path d="M25.6374254,13.5002679 C25.3859453,13.6109132 25.1278583,13.704347 24.8635771,13.7801595 C25.1761722,13.429373 25.4144382,13.0162973 25.5602057,12.5647007 C25.5928279,12.4634808 25.5589669,12.3524257 25.4747273,12.2864483 C25.3913136,12.2200612 25.2748647,12.2118652 25.1823663,12.2663683 C24.6220076,12.5962551 24.0166386,12.8335277 23.3823638,12.9720392 C22.7435467,12.3524257 21.8755483,12 20.9782312,12 C19.0840786,12 17.5434021,13.5289538 17.5434021,15.408694 C17.5434021,15.5566308 17.5528997,15.7037481 17.571482,15.8488163 C15.2214444,15.6439177 13.0361696,14.4977146 11.5359611,12.671248 C11.4826919,12.6060902 11.4001041,12.5708476 11.3158644,12.5778142 C11.2316248,12.584371 11.155644,12.6314977 11.1131112,12.7040318 C10.808775,13.2224254 10.6477287,13.8149923 10.6477287,14.4182139 C10.6477287,15.2394477 10.9433932,16.0188822 11.4653485,16.6274312 C11.3063668,16.5729282 11.1523405,16.5049018 11.0053341,16.4237619 C10.9264627,16.3803234 10.8302478,16.3807332 10.7517894,16.4254011 C10.6733309,16.470069 10.6241911,16.5520285 10.6221264,16.6421839 C10.6217135,16.6569366 10.6217135,16.6720991 10.6217135,16.6872616 C10.6217135,17.9133752 11.2869587,19.0169593 12.3032023,19.6189515 C12.2160721,19.609936 12.128529,19.5976421 12.0418117,19.5808404 C11.9526169,19.5640387 11.8605314,19.5951833 11.8002423,19.6627999 C11.7399531,19.7304164 11.7197191,19.8246698 11.747799,19.9107272 C12.1239867,21.0766006 13.0927423,21.9343063 14.2638381,22.1953472 C13.2926049,22.7989787 12.1817982,23.1153422 11.0156576,23.1153422 C10.7724363,23.1153422 10.5279763,23.1014091 10.2884715,23.0731331 C10.1695449,23.0591999 10.0555737,23.1288655 10.0151056,23.24115 C9.97463759,23.3534344 10.0175833,23.4788324 10.1187534,23.5431706 C11.6164843,24.4963591 13.3487646,25 15.1277072,25 C18.6244772,25 20.8122296,23.3632696 22.0316394,21.9904486 C23.5520819,20.2787252 24.4242097,18.0129559 24.4242097,15.7742332 C24.4242097,15.6807994 24.4225579,15.5861362 24.4196674,15.4918829 C25.0196682,15.0435646 25.5362552,14.5005832 25.9562145,13.8768717 C26.0202201,13.7817987 26.0136131,13.6568105 25.939284,13.5695237 C25.8657808,13.4822369 25.742312,13.4539608 25.6374254,13.5002679" id="Fill-15"></path>
            <path d="M31.7584222,24.580085 C31.6832233,26.2894934 31.3959467,27.2124134 31.1568313,27.8278342 C30.5683368,29.3526586 29.3579731,30.5628032 27.8328726,31.1507687 C27.2173404,31.3902633 26.2874938,31.6770655 24.5849578,31.7522507 C22.7383611,31.8346166 22.1845088,31.8548913 17.5137301,31.8548913 C12.8429515,31.8548913 12.2819173,31.8346166 10.4425024,31.7522507 C8.73278453,31.6770655 7.80969739,31.3902633 7.19416515,31.1507687 C6.43541709,30.8703024 5.74426352,30.4259492 5.18365179,29.8447419 C4.60233925,29.2774734 4.15790554,28.5932032 3.87738844,27.8345925 C3.6378505,27.219594 3.35099642,26.2894934 3.27579755,24.5868432 C3.19341678,22.7410031 3.17313844,22.1868287 3.17313844,17.5168956 C3.17313844,12.8469624 3.19341678,12.2864522 3.27579755,10.4473703 C3.35099642,8.73796191 3.6378505,7.81504188 3.87738844,7.19962106 C4.15790554,6.44058797 4.60233925,5.7499819 5.19041124,5.18904926 C5.75820488,4.60784195 6.44175408,4.16348869 7.2009246,3.88344476 C7.81645684,3.64437257 8.74672589,3.35714803 10.4492619,3.28154039 C12.2958586,3.19959692 12.8497109,3.17889986 17.5204896,3.17889986 C22.1980277,3.17889986 22.75188,3.19959692 24.5917173,3.28154039 C26.3014352,3.35714803 27.2245223,3.64437257 27.8400546,3.88344476 C28.5988026,4.16348869 29.2895337,4.60784195 29.8501454,5.18904926 C30.431458,5.75674012 30.8763142,6.44058797 31.1568313,7.19962106 C31.3959467,7.81504188 31.6832233,8.74472014 31.7584222,10.4473703 C31.8403805,12.2932104 31.8610813,12.8469624 31.8610813,17.5168956 C31.8610813,22.1868287 31.8403805,22.7338225 31.7584222,24.580085 M34.9108598,10.2898192 C34.8289015,8.4304627 34.528106,7.1518911 34.0971912,6.04396466 C33.6527575,4.8680336 32.9687858,3.81501774 32.073159,2.93982767 C31.197388,2.05112114 30.137422,1.36009268 28.9752194,0.922920036 C27.8603329,0.492083223 26.5882893,0.191342232 24.7281736,0.109398759 C22.8545391,0.0202746736 22.2597077,0 17.5069707,0 C12.7538112,0 12.1589798,0.0202746736 10.2921047,0.102218146 C8.43198909,0.184161618 7.15318599,0.485324998 6.04548143,0.915739422 C4.86891499,1.36009268 3.81570847,2.04394053 2.94078241,2.93982767 C2.05149251,3.81501774 1.3607614,4.87479182 0.923087137,6.03720644 C0.492172318,7.1518911 0.191376875,8.42328208 0.109418567,10.283061 C0.0207008099,12.1563564 0,12.7515025 0,17.5033791 C0,22.2552557 0.0207008099,22.8499795 0.102659119,24.716939 C0.184617427,26.5767179 0.485835335,27.8548671 0.916750154,28.9627936 C1.3607614,30.1387246 2.05149251,31.1917405 2.94078241,32.0669306 C3.81570847,32.9556371 4.8760969,33.6462432 6.03872198,34.0838382 C7.15318599,34.514675 8.42522964,34.815416 10.2853453,34.8973595 C12.1522204,34.9797253 12.7474743,35 17.5002112,35 C22.2529482,35 22.8477796,34.9797253 24.7146547,34.8973595 C26.5747704,34.815416 27.8535735,34.514675 28.961278,34.0838382 C31.3139884,33.1744346 33.1741041,31.3146557 34.0836723,28.9627936 C34.5141647,27.8481089 34.8153826,26.5767179 34.8973409,24.716939 C34.9792992,22.8499795 35,22.2552557 35,17.5033791 C35,12.7515025 34.9928181,12.1563564 34.9108598,10.2898192" id="Fill-16"></path>
        </g>
    </g>
</svg>