<?xml version="1.0" encoding="utf-8"?>
<!-- Generator: Adobe Illustrator 21.0.2, SVG Export Plug-In . SVG Version: 6.00 Build 0)  -->
<svg version="1.1" id="Layer_1" xmlns="http://www.w3.org/2000/svg" xmlns:xlink="http://www.w3.org/1999/xlink" x="0px" y="0px"
	 viewBox="0 0 452 212" style="enable-background:new 0 0 452 212;" xml:space="preserve">
<style type="text/css">
	.st0{fill:#7C7C7C;}
	.st1{fill:#FF8200;}
</style>
<g>
	<path class="st0" d="M250,136.4c12.4-12.8,19.3-30.3,19.3-49.2c0-18.9-6.8-36.4-19.3-49.2c-12.4-12.8-29.4-19.9-47.8-19.9h-54.9
		v138.1h54.9C220.7,156.2,237.6,149.2,250,136.4z M176.3,45.9h25.9c23.5,0,39.3,16.6,39.3,41.3c0,24.7-15.8,41.3-39.3,41.3h-25.9
		V45.9z"/>
	<g>
		<rect x="283.8" y="58.5" class="st0" width="27" height="97.7"/>
	</g>
	<path class="st0" d="M379,199.5c23.8,0,51.7-12.2,51.7-46.6V58.5h-26.1v13.4l-3-3.7c-6.7-8.3-16.2-12.5-28.2-12.5
		c-26.9,0-48,21.8-48,49.7s21.1,49.7,48,49.7c12,0,21.5-4.2,28.2-12.5l3-3.7v14.1c0,14.8-8.9,23.3-24.5,23.3
		c-14,0-20.1-6.2-23.7-12.1l-22.9,13.3C342.1,191.6,358.2,199.5,379,199.5z M378.3,130.5c-15.4,0-26.1-10.3-26.1-25.1
		s10.8-25.1,26.1-25.1c15.4,0,26.1,10.3,26.1,25.1S393.7,130.5,378.3,130.5z"/>
</g>
<g>
	<path class="st1" d="M21.4,104.5V18.3h25.8v86.2c0,15.5,12.6,28.3,27.9,28.3c15.5,0,27.9-12.8,27.9-28.3V18.3h26v86.2
		c0,14.3-5.6,27.9-15.7,38c-10.3,10.1-23.8,15.7-38.2,15.7C45.4,158.2,21.4,134.2,21.4,104.5z"/>
</g>
<circle class="st1" cx="297.4" cy="30.2" r="17.7"/>
</svg>
