<?xml version="1.0" encoding="UTF-8"?>
<svg width="126px" height="57px" viewBox="0 0 126 57" version="1.1" xmlns="http://www.w3.org/2000/svg" xmlns:xlink="http://www.w3.org/1999/xlink">
    <title>UDig Logo</title>
    <defs>
        <filter id="filter-1">
            <feColorMatrix in="SourceGraphic" type="matrix" values="0 0 0 0 1.000000 0 0 0 0 1.000000 0 0 0 0 1.000000 0 0 0 1.000000 0"></feColorMatrix>
        </filter>
    </defs>
    <g id="Home" stroke="none" stroke-width="1" fill="none" fill-rule="evenodd">
        <g id="LEADERSHIP" transform="translate(-75.000000, -72.000000)">
            <g id="UDig-Logo" transform="translate(75.000000, 68.000000)" filter="url(#filter-1)">
                <g transform="translate(0.000000, 4.000000)">
                    <path d="M47.7902111,11.641896 L55.6606928,11.641896 C62.7888994,11.641896 67.5777413,16.809167 67.5777413,24.5001556 C67.5777413,32.190833 62.7888994,37.3577928 55.6606928,37.3577928 L47.7902111,37.3577928 L47.7902111,11.641896 Z M70.1573519,39.8192577 C73.9251486,35.8341622 76,30.3936025 76,24.5001556 C76,18.6060863 73.9251486,13.1658378 70.1573519,9.18074225 C66.3892519,5.19502414 61.240951,3 55.6606928,3 L39,3 L39,46 L55.6606928,46 C61.240951,46 66.3892519,43.8049759 70.1573519,39.8192577 L70.1573519,39.8192577 Z" id="Fill-1" fill="#7C7C7C"></path>
                    <polygon id="Fill-3" fill="#7C7C7C" points="80 43 89 43 89 14 80 14"></polygon>
                    <path d="M110.122812,35.8866822 C105.448371,35.8866822 102.184218,32.7239375 102.184218,28.1956776 C102.184218,23.6674177 105.448371,20.5052848 110.122812,20.5052848 C114.796949,20.5052848 118.061102,23.6674177 118.061102,28.1956776 C118.061102,32.7239375 114.796949,35.8866822 110.122812,35.8866822 M110.306802,57 C117.546173,57 126,53.2629617 126,42.7316978 L126,13.8655708 L118.061102,13.8655708 L118.061102,17.9679295 L117.151171,16.8285214 C115.122423,14.2881064 112.24143,13 108.588043,13 C100.408076,13 94,19.6748999 94,28.1956776 C94,36.7167612 100.408076,43.3916611 108.588043,43.3916611 C112.24143,43.3916611 115.122423,42.1035547 117.151171,39.5634457 L118.061102,38.4240376 L118.061102,42.7316978 C118.061102,47.2654651 115.346794,49.8658489 110.613756,49.8658489 C106.363464,49.8658489 104.509597,47.9746885 103.427213,46.159407 L96.4617019,50.217401 C99.1192349,54.5963507 104.013188,57 110.306802,57" id="Fill-5" fill="#7C7C7C"></path>
                    <path d="M0,29.5029629 L0,3 L7.90776198,3 L7.90776198,29.5029629 C7.90776198,34.2672504 11.7724969,38.1979413 16.4700801,38.1979413 C21.2265825,38.1979413 25.0320913,34.2672504 25.0320913,29.5029629 L25.0320913,3 L33,3 L33,29.5029629 C33,33.9097752 31.2750774,38.0789878 28.183044,41.1760821 C25.0320913,44.2725616 20.8696914,46 16.4700801,46 C7.37288561,46 0,38.615047 0,29.5029629" id="Fill-6" fill="#FF8200"></path>
                    <path d="M90,5 C90,7.76144715 87.7615104,10 85.0001413,10 C82.2387722,10 80,7.76144715 80,5 C80,2.23855285 82.2387722,0 85.0001413,0 C87.7615104,0 90,2.23855285 90,5" id="Fill-7" fill="#FF8200"></path>
                </g>
            </g>
        </g>
    </g>
</svg>